<?xml version="1.0" standalone="no"?>
<!DOCTYPE svg PUBLIC "-//W3C//DTD SVG 20010904//EN"
 "http://www.w3.org/TR/2001/REC-SVG-20010904/DTD/svg10.dtd">
<svg version="1.0" xmlns="http://www.w3.org/2000/svg"
 width="300.000000pt" height="300.000000pt" viewBox="0 0 300.000000 300.000000"
 preserveAspectRatio="xMidYMid meet">
<metadata>
Created by potrace 1.11, written by Peter Selinger 2001-2013
</metadata>
<g transform="translate(0.000000,300.000000) scale(0.100000,-0.100000)"
fill="#000000" stroke="none">
<path d="M0 1500 l0 -1500 1500 0 1500 0 0 1500 0 1500 -1500 0 -1500 0 0
-1500z m2100 790 c0 -28 2 -30 40 -30 22 0 40 -4 40 -10 0 -5 9 -10 20 -10 11
0 20 -4 20 -10 0 -5 18 -10 40 -10 33 0 40 -3 40 -20 0 -17 7 -20 40 -20 22 0
40 -4 40 -10 0 -5 9 -10 20 -10 13 0 20 -7 20 -20 0 -17 7 -20 40 -20 22 0 40
-4 40 -10 0 -5 9 -10 20 -10 11 0 20 -4 20 -10 0 -5 9 -10 20 -10 11 0 20 -4
20 -10 0 -5 9 -10 20 -10 11 0 20 -4 20 -10 0 -5 9 -10 20 -10 11 0 20 -7 20
-15 0 -8 9 -15 20 -15 15 0 20 -7 20 -25 0 -18 5 -25 20 -25 13 0 20 -7 20
-20 0 -13 -7 -20 -20 -20 -13 0 -20 7 -20 20 0 13 -7 20 -20 20 -11 0 -20 5
-20 10 0 6 -9 10 -20 10 -11 0 -20 5 -20 10 0 6 -18 10 -40 10 -22 0 -40 5
-40 10 0 6 -9 10 -20 10 -13 0 -20 7 -20 20 0 18 -7 20 -60 20 -33 0 -60 4
-60 10 0 6 -18 10 -40 10 -33 0 -40 3 -40 20 0 17 -7 20 -40 20 -22 0 -40 5
-40 10 0 6 -9 10 -20 10 -13 0 -20 7 -20 20 0 18 -7 20 -80 20 -47 0 -80 4
-80 10 0 6 -47 10 -120 10 -73 0 -120 -4 -120 -10 0 -6 -53 -10 -140 -10 -87
0 -140 -4 -140 -10 0 -6 -27 -10 -60 -10 -53 0 -60 -2 -60 -20 0 -19 -7 -20
-100 -20 -60 0 -100 -4 -100 -10 0 -5 -18 -10 -40 -10 -22 0 -40 -4 -40 -10 0
-5 -18 -10 -40 -10 -22 0 -40 -4 -40 -10 0 -6 -27 -10 -60 -10 -33 0 -60 -4
-60 -10 0 -6 -33 -10 -79 -10 -47 0 -81 -4 -83 -11 -2 -7 -76 -8 -241 -3 -221
7 -237 8 -237 26 0 11 7 18 20 18 13 0 20 7 20 20 0 17 7 20 40 20 32 0 40 -4
40 -18 0 -17 9 -18 118 -14 64 2 119 8 120 13 2 5 57 9 123 9 73 0 119 4 119
10 0 6 9 10 20 10 11 0 20 5 20 10 0 6 40 10 100 10 93 0 100 1 100 20 0 17 7
20 40 20 22 0 40 5 40 10 0 6 33 10 80 10 47 0 80 4 80 10 0 6 9 10 20 10 11
0 20 5 20 10 0 6 27 10 60 10 53 0 60 2 60 20 0 19 7 20 140 20 133 0 140 1
140 20 0 19 7 20 160 20 l160 0 0 -30z m-200 -280 c0 -5 18 -10 40 -10 22 0
40 -4 40 -10 0 -5 18 -10 40 -10 22 0 40 -4 40 -10 0 -5 18 -10 40 -10 22 0
40 -4 40 -10 0 -5 18 -10 40 -10 33 0 40 -3 40 -20 0 -13 7 -20 20 -20 11 0
20 -4 20 -10 0 -5 18 -10 40 -10 22 0 40 -4 40 -10 0 -5 9 -10 20 -10 13 0 20
-7 20 -20 0 -13 7 -20 20 -20 11 0 20 -4 20 -10 0 -5 9 -10 20 -10 13 0 20 -7
20 -20 0 -17 7 -20 40 -20 33 0 40 -3 40 -20 0 -13 7 -20 20 -20 13 0 20 -7
20 -20 0 -13 7 -20 20 -20 16 0 20 -7 20 -30 0 -23 4 -30 20 -30 13 0 20 -7
20 -20 0 -13 7 -20 20 -20 13 0 20 -7 20 -20 0 -13 7 -20 20 -20 13 0 20 -7
20 -20 0 -13 -7 -20 -20 -20 -11 0 -20 -4 -20 -10 0 -5 -18 -10 -40 -10 -22 0
-40 -4 -40 -10 0 -5 -18 -10 -40 -10 -22 0 -40 -4 -40 -10 0 -5 -18 -10 -40
-10 -22 0 -40 -4 -40 -10 0 -5 -18 -10 -40 -10 -22 0 -40 -4 -40 -10 0 -5 -18
-10 -40 -10 -22 0 -40 -4 -40 -10 0 -6 -27 -10 -60 -10 -33 0 -60 -4 -60 -10
0 -5 -18 -10 -40 -10 l-40 0 0 -40 c0 -33 3 -40 20 -40 17 0 20 -7 20 -45 0
-38 3 -45 20 -45 16 0 20 -7 20 -35 0 -28 4 -35 20 -35 13 0 20 -7 20 -20 0
-13 7 -20 20 -20 13 0 20 -7 20 -20 0 -17 7 -20 40 -20 33 0 40 -3 40 -20 0
-13 -7 -20 -20 -20 -11 0 -20 -4 -20 -10 0 -5 -9 -10 -20 -10 -11 0 -20 -4
-20 -10 0 -5 -18 -10 -40 -10 -33 0 -40 -3 -40 -20 0 -13 -7 -20 -20 -20 -13
0 -20 -7 -20 -20 0 -16 -7 -20 -30 -20 -28 0 -30 -2 -30 -40 0 -33 -3 -40 -20
-40 -13 0 -20 -7 -20 -20 0 -13 -7 -20 -20 -20 -13 0 -20 -7 -20 -20 0 -13 -7
-20 -20 -20 -13 0 -20 -7 -20 -20 0 -13 -7 -20 -20 -20 -13 0 -20 7 -20 20 0
13 7 20 20 20 16 0 20 7 20 30 0 23 4 30 20 30 19 0 20 7 20 160 0 100 4 160
10 160 6 0 10 37 10 90 0 83 -1 90 -20 90 -13 0 -20 -7 -20 -20 0 -13 -7 -20
-20 -20 -16 0 -20 -7 -20 -30 0 -23 -4 -30 -20 -30 -13 0 -20 -7 -20 -20 0
-16 -7 -20 -35 -20 -28 0 -35 -4 -35 -20 0 -13 -7 -20 -20 -20 -13 0 -20 -7
-20 -20 0 -17 -7 -20 -40 -20 -33 0 -40 -3 -40 -20 0 -13 -7 -20 -20 -20 -13
0 -20 -7 -20 -20 0 -18 -7 -20 -60 -20 l-60 0 0 -30 c0 -28 -2 -30 -40 -30
-33 0 -40 -3 -40 -20 0 -18 -7 -20 -60 -20 -33 0 -60 -4 -60 -10 0 -5 -18 -10
-40 -10 -33 0 -40 -3 -40 -20 0 -18 -7 -20 -60 -20 -33 0 -60 -4 -60 -10 0 -6
-30 -10 -70 -10 -40 0 -70 -4 -70 -10 0 -6 -33 -10 -80 -10 -47 0 -80 4 -80
10 0 6 -18 10 -40 10 -33 0 -40 3 -40 20 0 17 -7 20 -40 20 -33 0 -40 3 -40
20 0 17 -7 20 -40 20 l-40 0 0 40 c0 33 -3 40 -20 40 -16 0 -20 7 -20 35 0 28
-4 35 -20 35 -19 0 -20 7 -20 105 0 98 1 105 20 105 17 0 20 7 20 40 0 33 3
40 20 40 11 0 20 5 20 10 0 6 9 10 20 10 11 0 20 5 20 10 0 6 18 10 40 10 33
0 40 -3 40 -20 0 -17 7 -20 40 -20 22 0 40 -4 40 -10 0 -5 9 -10 20 -10 13 0
20 -7 20 -20 0 -13 7 -20 20 -20 18 0 20 -7 20 -80 0 -73 -2 -80 -20 -80 -13
0 -20 -7 -20 -20 0 -13 -7 -20 -20 -20 -11 0 -20 -4 -20 -10 0 -5 -9 -10 -20
-10 -11 0 -20 5 -20 10 0 6 -9 10 -20 10 -16 0 -20 7 -20 30 0 23 4 30 20 30
13 0 20 -7 20 -20 0 -13 7 -20 20 -20 11 0 20 5 20 10 0 6 9 10 20 10 17 0 20
7 20 50 0 43 -3 50 -20 50 -16 0 -20 7 -20 30 0 23 -4 30 -20 30 -11 0 -20 5
-20 10 0 6 -9 10 -20 10 -11 0 -20 5 -20 10 0 6 -9 10 -20 10 -11 0 -20 -4
-20 -10 0 -5 -18 -10 -40 -10 -33 0 -40 -3 -40 -20 0 -13 -7 -20 -20 -20 -18
0 -20 -7 -20 -70 0 -63 2 -70 20 -70 17 0 20 -7 20 -50 0 -43 3 -50 20 -50 16
0 20 -7 20 -30 0 -23 4 -30 20 -30 13 0 20 -7 20 -20 0 -17 7 -20 40 -20 33 0
40 -3 40 -20 0 -17 7 -20 40 -20 22 0 40 -4 40 -10 0 -6 37 -10 90 -10 53 0
90 4 90 10 0 6 18 10 40 10 33 0 40 3 40 20 0 18 7 20 60 20 33 0 60 4 60 10
0 6 18 10 40 10 33 0 40 3 40 20 0 13 7 20 20 20 11 0 20 5 20 10 0 6 9 10 20
10 13 0 20 7 20 20 0 17 7 20 40 20 33 0 40 3 40 20 0 13 7 20 20 20 13 0 20
7 20 20 0 16 7 20 35 20 34 0 35 1 35 40 l0 40 40 0 c38 0 40 2 40 30 0 23 4
30 20 30 13 0 20 7 20 20 0 17 7 20 40 20 33 0 40 3 40 20 0 13 7 20 20 20 13
0 20 7 20 20 0 17 -7 20 -40 20 -22 0 -40 5 -40 10 0 6 -18 10 -40 10 -22 0
-40 5 -40 10 0 6 -18 10 -40 10 -22 0 -40 5 -40 10 0 6 -9 10 -20 10 -11 0
-20 5 -20 10 0 6 -18 10 -40 10 -33 0 -40 3 -40 20 0 17 -7 20 -40 20 -33 0
-40 3 -40 20 0 17 -7 20 -40 20 -22 0 -40 5 -40 10 0 6 -18 10 -40 10 -33 0
-40 3 -40 20 0 13 -7 20 -20 20 -13 0 -20 7 -20 20 0 17 -7 20 -40 20 -22 0
-40 5 -40 10 0 6 -9 10 -20 10 -11 0 -20 5 -20 10 0 6 -27 10 -60 10 -33 0
-60 4 -60 10 0 6 -40 10 -100 10 -60 0 -100 4 -100 10 0 6 -47 10 -120 10 -73
0 -120 -4 -120 -10 0 -6 -47 -10 -120 -10 -113 0 -120 1 -120 20 0 17 7 20 40
20 33 0 40 3 40 20 0 13 7 20 20 20 11 0 20 -4 20 -10 0 -6 80 -10 220 -10
140 0 220 4 220 10 0 6 27 10 60 10 33 0 60 4 60 10 0 6 27 10 60 10 33 0 60
4 60 10 0 6 18 10 40 10 22 0 40 5 40 10 0 6 9 10 20 10 11 0 20 5 20 10 0 6
18 10 40 10 22 0 40 5 40 10 0 6 9 10 20 10 11 0 20 5 20 10 0 6 18 10 40 10
33 0 40 3 40 20 0 17 7 20 40 20 22 0 40 5 40 10 0 6 9 10 20 10 11 0 20 5 20
10 0 6 18 10 40 10 22 0 40 5 40 10 0 6 18 10 40 10 22 0 40 5 40 10 0 6 27
10 60 10 33 0 60 4 60 10 0 6 27 10 60 10 33 0 60 -4 60 -10z"/>
<path d="M1780 1950 c0 -6 -27 -10 -60 -10 -33 0 -60 -4 -60 -10 0 -5 -18 -10
-40 -10 -22 0 -40 -4 -40 -10 0 -5 -18 -10 -40 -10 -22 0 -40 -4 -40 -10 0 -5
-9 -10 -20 -10 -11 0 -20 -4 -20 -10 0 -5 -18 -10 -40 -10 -33 0 -40 -3 -40
-20 0 -17 -7 -20 -40 -20 -33 0 -40 -3 -40 -20 0 -13 -7 -20 -20 -20 -11 0
-20 -4 -20 -10 0 -5 -9 -10 -20 -10 -13 0 -20 -7 -20 -20 0 -13 -7 -20 -20
-20 -16 0 -20 -7 -20 -30 0 -23 4 -30 20 -30 11 0 20 -4 20 -10 0 -5 18 -10
40 -10 22 0 40 -4 40 -10 0 -5 18 -10 40 -10 33 0 40 -3 40 -20 0 -13 7 -20
20 -20 11 0 20 -4 20 -10 0 -5 9 -10 20 -10 13 0 20 -7 20 -20 0 -17 7 -20 40
-20 22 0 40 -4 40 -10 0 -5 9 -10 20 -10 13 0 20 -7 20 -20 0 -18 7 -20 60
-20 33 0 60 -4 60 -10 0 -5 9 -10 20 -10 11 0 20 -4 20 -10 0 -5 18 -10 40
-10 22 0 40 -4 40 -10 0 -6 60 -10 160 -10 100 0 160 4 160 10 0 6 18 10 40
10 22 0 40 5 40 10 0 6 9 10 20 10 11 0 20 5 20 10 0 6 27 10 60 10 33 0 60 4
60 10 0 6 18 10 40 10 22 0 40 5 40 10 0 6 18 10 40 10 22 0 40 5 40 10 0 6 9
10 20 10 11 0 20 5 20 10 0 6 9 10 20 10 11 0 20 5 20 10 0 6 -9 10 -20 10
-13 0 -20 7 -20 20 0 13 -7 20 -20 20 -16 0 -20 7 -20 30 0 23 -4 30 -20 30
-13 0 -20 7 -20 20 0 13 -7 20 -20 20 -13 0 -20 7 -20 20 0 13 -7 20 -20 20
-11 0 -20 5 -20 10 0 6 -9 10 -20 10 -13 0 -20 7 -20 20 0 17 -7 20 -40 20
-22 0 -40 5 -40 10 0 6 -9 10 -20 10 -11 0 -20 5 -20 10 0 6 -9 10 -20 10 -13
0 -20 7 -20 20 0 17 -7 20 -40 20 -22 0 -40 5 -40 10 0 6 -9 10 -20 10 -11 0
-20 5 -20 10 0 6 -18 10 -40 10 -22 0 -40 5 -40 10 0 6 -27 10 -60 10 -33 0
-60 4 -60 10 0 6 -27 10 -60 10 -33 0 -60 -4 -60 -10z m250 -65 c0 -22 4 -25
35 -25 30 0 35 -3 35 -24 0 -18 6 -25 23 -28 18 -2 23 -10 25 -45 2 -29 8 -43
18 -43 10 0 14 -13 14 -50 0 -37 -4 -50 -14 -50 -10 0 -16 -14 -18 -42 -2 -36
-7 -44 -25 -46 -17 -3 -23 -10 -23 -28 0 -21 -5 -24 -35 -24 -31 0 -35 -3 -35
-25 0 -25 -1 -25 -90 -25 -89 0 -90 0 -90 25 0 23 -4 25 -40 25 -35 0 -40 3
-40 24 0 15 -7 26 -20 29 -16 4 -20 14 -20 46 0 30 -4 41 -15 41 -11 0 -15 12
-15 50 0 38 4 50 15 50 11 0 15 11 15 41 0 32 4 42 20 46 13 3 20 14 20 29 0
21 5 24 40 24 36 0 40 3 40 25 0 25 1 25 90 25 89 0 90 0 90 -25z"/>
</g>
</svg>
